<svg viewBox="0 0 38 28" fill="#000000"  xmlns="http://www.w3.org/2000/svg">
      <path
        d="M2.96122 27.0206C2.95017 27.4552 3.26795 27.7296 3.68388 27.6628C4.00043 27.6118 4.23109 27.3982 4.4777 27.2209C6.77207 25.5676 9.27747 24.3282 11.9473 23.3753C14.5533 22.4443 17.2979 22.2986 19.9861 21.8374C23.4633 21.2426 26.9735 20.8104 30.3243 19.6317C32.4101 18.9034 34.4529 18.0962 36.3362 16.9466C36.7522 16.6929 37.146 16.3615 36.8417 15.8177C36.5375 15.2739 36.0994 15.6089 35.7314 15.7837C33.6542 16.7787 31.5013 17.6108 29.2924 18.2722C25.2043 19.4776 20.98 19.9716 16.7777 20.5725C11.8479 21.2765 7.45302 23.1629 3.51825 26.1564C3.22624 26.3821 2.9968 26.6589 2.96122 27.0206Z"
      />
      <path
        d="M37.1891 10.9405C37.2113 10.403 36.8349 10.1125 36.3683 10.2851C36.027 10.4286 35.6933 10.5898 35.3685 10.7679C32.7406 12.0676 30.0263 13.1264 27.1268 13.6291C23.3436 14.2895 19.5566 14.93 15.7709 15.5891C10.6731 16.4754 6.09367 18.5682 1.9463 21.638C1.19705 22.1916 1.00943 22.6881 1.32913 23.1064C1.64882 23.5247 1.9537 23.454 2.76836 22.8793C5.73077 20.7852 8.9166 19.1306 12.4061 18.1276C15.8511 17.1346 19.4122 16.7411 22.9288 16.1204C25.7789 15.6164 28.6611 15.2801 31.389 14.225C33.1751 13.5336 34.9266 12.7739 36.5386 11.725C36.8484 11.5226 37.1595 11.3079 37.1891 10.9405Z"
      />
      <path
        d="M1.05985 17.4724C1.06969 18.0276 1.54328 18.3306 2.04393 18.066C2.4228 17.8644 2.766 17.5973 3.12765 17.3648C6.90408 14.9272 10.9376 13.134 15.3795 12.3215C19.6283 11.5448 23.9201 11.0069 28.1283 10.0163C31.0966 9.31752 33.9172 8.22056 36.5139 6.59306C36.9408 6.3247 37.4168 6.01923 37.0699 5.42191C36.7095 4.80355 36.2372 5.21414 35.8398 5.41572C33.0537 6.85525 30.1383 7.93241 27.0618 8.52355C24.3076 9.05286 21.5472 9.56239 18.7734 9.97916C14.7632 10.5827 10.849 11.4756 7.18208 13.2836C5.22867 14.247 3.34292 15.3193 1.5974 16.6302C1.3194 16.8416 1.04262 17.0642 1.05985 17.4724Z"
      />
      <path
        d="M36.9492 0.836179C36.9492 0.273955 36.5572 0.0820035 35.9484 0.384168C32.2926 2.19963 28.4383 3.33894 24.4091 3.96185C20.7607 4.52531 17.0962 5.038 13.4996 5.88505C9.2004 6.8968 5.22044 8.66769 1.64229 11.3005C1.40605 11.4631 1.19256 11.6567 1.00752 11.8763C0.791823 12.1525 0.726495 12.4844 0.993962 12.7816C1.26143 13.0788 1.56957 13.08 1.88881 12.8967C2.13532 12.7531 2.37444 12.5884 2.61109 12.4237C5.34451 10.5491 8.34555 9.10268 11.5115 8.13395C14.7618 7.116 18.1452 6.81383 21.4682 6.18969C24.4904 5.62251 27.557 5.28815 30.4906 4.28506C32.5342 3.58538 34.5482 2.82873 36.3761 1.64856C36.6768 1.45537 36.9615 1.25104 36.9492 0.836179Z"
      />
    </svg>